<?xml version="1.0" standalone="no"?>
<!DOCTYPE svg PUBLIC "-//W3C//DTD SVG 20010904//EN"
 "http://www.w3.org/TR/2001/REC-SVG-20010904/DTD/svg10.dtd">
<svg version="1.0" xmlns="http://www.w3.org/2000/svg"
 width="482.000000pt" height="582.000000pt" viewBox="0 0 482.000000 582.000000"
 preserveAspectRatio="xMidYMid meet">

<g transform="translate(0.000000,582.000000) scale(0.100000,-0.100000)"
fill="#ffffff" stroke="none">
<path d="M1261 3118 c-596 -1432 -1086 -2609 -1088 -2618 -3 -11 41 -34 179
-91 l183 -76 40 96 c23 53 297 711 610 1463 313 752 573 1364 576 1360 9 -10
369 -888 369 -901 0 -5 -197 -489 -439 -1075 l-438 -1066 1698 0 c1652 0 1698
1 1691 19 -45 116 -2288 5491 -2292 5491 -3 0 -493 -1171 -1089 -2602z m1269
1141 c96 -232 179 -434 184 -450 7 -24 -17 -91 -175 -473 -101 -245 -186 -446
-189 -446 -3 0 -88 201 -189 446 -156 379 -182 450 -175 474 15 49 359 870
364 870 3 0 84 -190 180 -421z m953 -2289 c295 -707 543 -1302 552 -1322 l15
-38 -383 0 -383 0 -357 867 c-197 478 -357 872 -357 877 0 9 356 880 367 899
3 5 6 7 8 5 2 -2 244 -581 538 -1288z m-883 -747 c135 -328 247 -600 248 -604
2 -5 -222 -9 -498 -9 -317 0 -500 4 -498 10 18 54 494 1200 498 1200 3 0 115
-269 250 -597z"/>
</g>
</svg>
